<svg xmlns="http://www.w3.org/2000/svg" width="450" height="94" viewBox="0 0 450 94" fill="none">
<path d="M305.383 76.4973L309.062 67.2981H310.486L304.419 82.4993H302.974L304.638 78.2942L300.082 67.2981H301.681L305.383 76.4973ZM391.509 9.88013C394.329 14.1518 396.997 18.1695 399.652 21.8743C404.696 18.6933 410.664 16.8489 417.056 16.8489C428.349 16.849 438.324 22.6015 444.205 31.3293C447.783 36.54 449.876 42.8354 449.876 49.6155C449.876 59.1505 445.738 67.7254 439.147 73.6731C438.474 74.291 437.774 74.8811 437.05 75.4417C441.298 77.9749 445.905 80.2788 449.999 82.2971C445.123 80.5942 440.119 78.8727 435.141 76.8137C429.956 80.2659 423.738 82.2814 417.056 82.2815C404.084 82.2815 392.851 74.6914 387.563 63.72C385.49 59.4538 384.327 54.6687 384.327 49.6155C384.327 47.8576 384.47 46.1322 384.74 44.4504C386.137 35.5917 391.101 27.9028 398.111 22.9065C395.028 17.2345 392.397 11.6812 391.509 9.88013ZM427.634 77.7395C426.802 77.871 425.938 77.9681 425.04 78.0247C424.379 78.0664 423.708 78.0881 423.03 78.0881C422.119 78.0881 421.191 78.0451 420.256 77.9709C419.363 78.6841 418.449 79.2307 417.523 79.6067C421.075 79.5586 424.479 78.9031 427.634 77.7395ZM393.407 65.9446C393.564 67.4517 394.014 68.7582 394.757 69.8254C399.629 75.125 406.392 78.6856 413.986 79.4563C415.725 79.6031 417.479 79.0546 419.174 77.8694C414.406 77.3525 409.408 75.9089 404.643 73.6301C400.274 71.5412 396.435 68.8806 393.407 65.9446ZM243.742 66.97C247.247 66.9701 248.867 69.9053 248.867 72.7961C248.867 75.6869 247.247 78.6222 243.742 78.6223C240.238 78.6223 238.617 75.687 238.617 72.7961C238.617 69.9052 240.238 66.97 243.742 66.97ZM265.784 66.97C269.464 66.97 270.801 69.6642 270.801 73.1028H262.302C262.346 75.4462 263.42 77.4172 266.114 77.4172C267.668 77.417 268.96 76.3006 269.289 74.7893H270.669C269.99 77.4176 268.348 78.6223 265.697 78.6223C262.411 78.6223 260.878 75.796 260.878 72.7961C260.878 69.8165 262.521 66.9703 265.784 66.97ZM286.647 66.97C290.327 66.97 291.663 69.6642 291.663 73.1028H283.165C283.209 75.4462 284.282 77.4172 286.977 77.4172C288.531 77.4172 289.823 76.3007 290.151 74.7893H291.531C290.852 77.4176 289.21 78.6223 286.56 78.6223C283.274 78.6223 281.741 75.796 281.741 72.7961C281.741 69.8163 283.384 66.97 286.647 66.97ZM320.233 66.969C322.489 66.9692 324.329 68.3278 324.438 70.6711H323.015C322.906 68.9847 321.832 68.1741 320.014 68.1741C317.999 68.1741 316.75 70.2764 316.75 72.7737C316.75 75.2921 317.999 77.4172 320.014 77.4172C321.723 77.4172 322.906 76.3655 323.015 74.8547H324.438C324.088 77.3735 322.643 78.6222 320.146 78.6223C316.86 78.6223 315.326 75.7967 315.326 72.7961C315.326 69.8166 316.97 66.969 320.233 66.969ZM354.031 75.8186C354.031 76.6724 354.097 77.5491 354.141 78.2932H352.782L352.717 76.6731L352.672 76.5852C351.774 77.8998 350.438 78.6223 348.905 78.6223C345.642 78.622 344.394 75.5112 344.394 72.7512C344.394 69.9047 345.642 66.9693 348.905 66.969C350.372 66.969 351.906 67.6697 352.672 68.9631L352.717 68.9182V62.4797H354.031V75.8186ZM276.363 76.4758L280.021 67.2981H281.467L277.109 78.2942H275.619L271.129 67.2981H272.574L276.363 76.4758ZM236.964 62.2161C237.379 62.2162 237.818 62.3687 238.212 62.4573V63.5081C237.949 63.4651 237.663 63.4202 237.401 63.4202C235.605 63.4203 235.561 64.3193 235.627 65.8967V67.2971H238.124V68.5022H235.627V78.2932H234.312V68.5022H232.101V67.2971H234.312V64.9543C234.312 63.0707 235.079 62.2161 236.964 62.2161ZM254.614 66.97C255.052 66.9481 255.491 66.9696 255.929 66.9915V68.262C255.666 68.2401 255.381 68.1741 255.118 68.1741C253.169 68.1742 252.139 69.5768 252.096 71.679V78.2932H250.781V69.7727C250.804 68.9178 250.716 68.0423 250.672 67.2971H252.029L252.096 68.9182H252.139C252.534 67.8017 253.519 67.0134 254.614 66.97ZM297.541 66.97C297.979 66.9481 298.418 66.9696 298.855 66.9915V68.262C298.593 68.2401 298.308 68.1741 298.046 68.1741C296.096 68.1741 295.065 69.5767 295.022 71.679V78.2932H293.708V69.7727C293.73 68.9178 293.644 68.0423 293.6 67.2971H294.957L295.022 68.9182H295.065C295.46 67.8018 296.446 67.0135 297.541 66.97ZM327.588 68.9622H327.631C328.398 67.6046 329.646 66.9701 331.07 66.97C334.662 66.97 334.947 70.1449 334.947 71.4153V78.2932H333.633V71.1975C333.633 69.292 332.537 68.1741 330.741 68.1741C328.573 68.1743 327.588 69.9929 327.588 71.9631V78.2932H326.273V62.4797H327.588V68.9622ZM338.474 78.2932H337.159V67.2971H338.474V78.2932ZM342.372 78.2932H341.058V62.4788H342.372V78.2932ZM243.742 68.1731C241.091 68.1731 240.041 70.7587 240.041 72.7961C240.041 74.8336 241.092 77.4172 243.742 77.4172C246.392 77.4171 247.443 74.8335 247.443 72.7961C247.443 70.7587 246.392 68.1732 243.742 68.1731ZM349.124 68.1741C346.627 68.1743 345.816 70.4961 345.816 72.5979C345.816 74.6353 346.409 77.4169 348.927 77.4172C351.796 77.4172 352.672 75.0307 352.672 72.5334C352.672 70.2992 351.687 68.1741 349.124 68.1741ZM425.032 72.1868C423.807 74.2632 422.481 75.959 421.093 77.2493C425.102 77.4843 428.771 77.0113 431.753 75.8577C431.921 75.7648 432.09 75.674 432.256 75.5784C429.854 74.5126 427.464 73.352 425.104 72.0618C425.08 72.1031 425.057 72.1458 425.032 72.1868ZM399.677 25.7209C398.876 26.0922 398.092 26.4901 397.331 26.9172C395.868 28.1727 394.527 29.5656 393.33 31.0745C392.434 33.0534 392.047 35.2848 392.132 37.6604H391.402C391.348 36.0492 391.505 34.5162 391.869 33.0842C388.708 37.8244 386.865 43.5065 386.865 49.6155C386.865 56.4176 389.149 62.6898 392.995 67.7219C392.778 66.9303 392.653 66.0732 392.622 65.1575C391.998 64.5111 391.409 63.8544 390.865 63.1877H391.838C392.092 63.4854 392.358 63.7807 392.629 64.0745C392.641 63.7834 392.66 63.4889 392.689 63.1877H393.425C393.367 63.7537 393.341 64.2989 393.346 64.8254C396.392 67.9166 400.37 70.7322 404.944 72.9192C410.031 75.3516 415.269 76.7565 420.076 77.175C421.595 75.8926 423.056 74.0921 424.4 71.8137C424.421 71.7786 424.441 71.7427 424.462 71.7073C422.723 70.7372 421.001 69.6931 419.304 68.5618C416.257 67.856 413.179 66.7972 410.167 65.4016C407.132 64.0188 404.359 62.3439 401.959 60.427C401.152 59.7825 400.392 59.1082 399.673 58.4114V57.3879C401.861 59.6109 404.595 61.6471 407.753 63.3723C408.194 63.6112 408.639 63.8451 409.091 64.0715C409.125 64.0886 409.159 64.1056 409.192 64.1223C409.434 64.2433 409.677 64.3626 409.922 64.4797C412.462 65.6942 415.026 66.6509 417.558 67.3567C416.493 66.6013 415.439 65.8126 414.397 64.9788C415.609 64.7672 421.792 62.8895 423.702 61.6165C421.22 59.5638 418.561 57.3366 415.899 54.9124V50.2952C417.779 51.9153 419.723 53.5048 421.713 55.0305C422.996 60.5462 426.943 63.3362 433.278 63.3362C433.645 63.3362 434.002 63.3245 434.353 63.3069C435.491 63.9151 436.629 64.4855 437.763 65.0051C434.73 66.9263 432.171 68.0394 428.96 68.8518C436.565 68.6402 442.754 65.7505 445.311 60.4309C446.619 57.0751 447.338 53.4292 447.338 49.6155C447.338 41.4195 444.024 33.9918 438.654 28.5774C437.706 27.7252 436.476 27.1542 435.017 26.8704C435.51 27.5773 435.869 28.3113 436.065 29.0471C436.372 30.1992 436.256 31.282 435.733 32.1917C437.493 33.8843 439.03 35.7234 440.323 37.6604H439.438C438.252 35.9434 436.867 34.3099 435.301 32.7932C434.351 33.882 432.767 34.477 430.909 34.5559C431.125 35.5659 431.312 36.6013 431.466 37.6604H430.724C430.568 36.6022 430.379 35.5682 430.16 34.5608C428.341 34.5065 426.319 33.9885 424.401 32.9895C422.904 32.21 421.632 31.224 420.677 30.1409C417.682 31.6794 414.669 33.6629 411.772 36.0061C412.403 36.5757 413.042 37.1291 413.692 37.6604H401.258C400.552 36.4627 399.886 35.2337 399.277 33.968C399.378 33.9774 399.475 33.9874 399.573 33.9963L399.262 33.9084C401.9 34.216 404.69 34.0491 405.024 34.0276C403.316 31.8277 401.46 28.8498 399.677 25.7209ZM443.53 64.1946C440.819 66.9828 436.761 68.7879 431.718 69.386C430.735 69.5019 429.73 69.5682 428.71 69.5901C430.471 71.1176 432.516 72.5908 434.715 73.9993C438.332 71.4226 441.352 68.0724 443.53 64.1946ZM265.807 68.1741C263.66 68.1741 262.521 69.9707 262.346 71.8977H269.377C269.223 69.7736 268.085 68.1741 265.807 68.1741ZM286.669 68.1741C284.522 68.1742 283.384 69.9708 283.209 71.8977H290.239C290.086 69.7736 288.947 68.1741 286.669 68.1741ZM338.583 64.1223H337.05V62.4797H338.583V64.1223ZM429.791 39.7805C429.979 39.7807 430.132 39.9334 430.132 40.1213V50.4348C430.132 52.7034 430.729 55.4075 433.572 55.4075C435.887 55.4073 437.012 53.7808 437.012 50.4348V40.1213C437.012 39.9334 437.165 39.7808 437.353 39.7805H443.522C443.71 39.7807 443.863 39.9333 443.863 40.1213V50.6233C443.863 57.5814 440.217 61.259 433.321 61.259C426.659 61.2589 423.28 57.6279 423.28 50.467V40.1213C423.28 39.9334 423.433 39.7808 423.621 39.7805H429.791ZM397.224 39.7805C397.412 39.7805 397.564 39.9332 397.564 40.1213V60.7307C397.564 60.9188 397.412 61.0715 397.224 61.0715H391.055C390.867 61.0715 390.714 60.9188 390.714 60.7307V40.1213C390.714 39.9332 390.867 39.7805 391.055 39.7805H397.224ZM419.513 39.7805C419.701 39.7805 419.853 39.9332 419.854 40.1213V45.1956C419.853 45.3841 419.701 45.5364 419.513 45.5364H414.127C413.939 45.5364 413.786 45.6892 413.786 45.8772V60.7307C413.786 60.9188 413.632 61.0715 413.444 61.0715H407.275C407.087 61.0714 406.935 60.9188 406.935 60.7307V45.8772C406.934 45.6892 406.782 45.5365 406.594 45.5364H401.333C401.144 45.5364 400.992 45.3841 400.992 45.1956V40.1213C400.992 39.9332 401.145 39.7805 401.333 39.7805H419.513ZM354.037 55.2415H232.292V54.5784H354.037V55.2415ZM338.376 41.9045C340.444 41.0706 343.787 40.5299 348.069 41.6545L348.553 41.7805L348.09 41.9641C346.134 42.7386 343.685 42.9689 342.267 42.5051C341.73 42.3283 341.406 42.0451 341.01 41.6721C340.339 41.739 339.681 41.9345 339.049 42.2141C339.617 42.518 341.414 43.5536 342.626 45.0872L342.712 45.1975L342.616 45.2991C342.517 45.4029 342.28 45.5798 342.127 45.6301L342.021 45.6633C342.021 45.6633 341.947 45.5819 341.947 45.5803C341.08 44.5364 339.819 43.3443 338.374 42.5481C336.93 43.3442 335.669 44.5367 334.804 45.5803C334.804 45.5819 334.73 45.6633 334.73 45.6633L334.626 45.6301C334.472 45.5798 334.236 45.4025 334.138 45.2991L334.041 45.1975L334.127 45.0881C335.336 43.5557 337.13 42.5199 337.701 42.2151C337.069 41.9353 336.411 41.7391 335.741 41.6721C335.344 42.0451 335.021 42.3284 334.486 42.5051C333.066 42.9684 330.616 42.7386 328.662 41.9641L328.2 41.7805L328.683 41.6545C332.963 40.5298 336.307 41.0708 338.376 41.9045ZM235.405 35.5393C235.405 38.4712 236.101 40.6262 239.266 40.6262C240.623 40.6262 242.464 39.9516 243.16 38.2014C243.785 36.6168 243.822 34.6289 243.822 34.2249V25.5305H247.126V42.4465H243.892V39.9514H243.822C242.5 42.0758 240.275 42.9503 237.839 42.9504C234.187 42.9504 232.101 40.2545 232.101 36.8518V25.5305H235.405V35.5393ZM282.592 25.0618C286.254 25.0618 289.016 27.3076 289.184 30.9563H285.906C285.734 28.8458 284.697 27.3752 282.346 27.3752C279.205 27.3755 277.993 30.0174 277.993 33.97C277.993 37.9201 279.205 40.5664 282.346 40.5667C284.52 40.5667 285.869 39.1973 286.042 36.7825H289.327C289.046 40.5663 286.147 42.8751 282.311 42.8752C276.749 42.8752 274.537 39.0603 274.537 34.1038C274.537 29.1764 277.092 25.0619 282.592 25.0618ZM298.856 25.0618C304.037 25.1664 306.489 28.344 306.489 33.0022V34.5706H294.262C294.02 37.5177 295.264 40.5667 298.613 40.5667C301.171 40.5666 302.449 39.5975 302.826 37.1467H306.287C305.766 40.9695 302.724 42.8743 298.581 42.8743C293.016 42.8741 290.802 39.0606 290.802 34.1047C290.802 29.176 293.364 25.0618 298.856 25.0618ZM259.08 25.0256C260.296 25.0256 265.687 25.3292 265.688 30.7532V42.4456H262.385V31.7981C262.385 29.0017 261.167 27.4866 258.385 27.4866C258.372 27.4859 256.57 27.3901 255.185 28.7317C254.698 29.2037 253.794 29.9445 253.794 33.2473V42.4456H250.488V25.5315H253.724V28.0237H253.794C254.905 25.9011 257.34 25.0257 259.08 25.0256ZM272.068 42.4309H268.765V25.5159H272.068V42.4309ZM315.635 17.2971C316.429 17.2971 317.193 17.496 317.989 17.6292V20.2727C317.431 20.2446 316.881 20.1702 316.325 20.1702C314.463 20.1702 313.39 20.6453 313.491 22.4836V25.5627H317.501V27.7756H313.491V42.3733H310.21V27.7756H307.225V25.5627H310.21V21.9504C310.318 18.2675 313.18 17.2972 315.635 17.2971ZM324.403 37.5667C325.722 37.7756 329.451 39.8144 330.025 40.6409L330.17 40.8489L329.914 40.8918C326.841 41.413 325.198 39.3852 324.229 37.8127L324.043 37.5081L324.403 37.5667ZM352.615 37.6614L352.522 37.8108C351.555 39.3837 349.913 41.4134 346.838 40.8928L346.581 40.8489L346.726 40.6409C347.3 39.814 351.031 37.7746 352.35 37.5657L352.708 37.509L352.615 37.6614ZM329.058 36.6106C330.053 37.2723 332.902 39.6292 333.112 40.4397L333.163 40.6282L332.963 40.6428C329.853 40.9019 329.106 38.5616 328.813 36.7776L328.785 36.6194L328.759 36.4602L329.058 36.6106ZM347.967 36.6194L347.938 36.7776C347.646 38.5616 346.898 40.9019 343.788 40.6428L343.592 40.6282L343.639 40.4397C343.849 39.6292 346.698 37.2723 347.694 36.6106L347.992 36.4602L347.967 36.6194ZM338.354 17.3147C344.697 17.3147 349.862 22.3163 349.862 28.4651C349.862 34.6122 344.697 39.6135 338.354 39.6135C332.007 39.6134 326.845 34.6122 326.845 28.4651C326.845 22.3164 332.007 17.3148 338.354 17.3147ZM326.919 33.0891C327.639 34.0101 328.562 37.0281 328.598 38.2258C328.597 38.2345 328.578 38.4461 328.578 38.4514L328.531 38.7356L328.313 38.6028C327.026 37.8036 326.354 36.6499 326.309 35.177C326.29 34.526 326.398 33.8402 326.624 33.1389L326.671 32.9856L326.72 32.8362L326.919 33.0891ZM350.078 32.9866L350.127 33.1379C350.355 33.8397 350.461 34.5254 350.442 35.178C350.399 36.6505 349.724 37.8029 348.438 38.6028L348.22 38.7346L348.173 38.4524C348.171 38.4469 348.154 38.2258 348.154 38.2258C348.188 37.0264 349.11 34.0094 349.832 33.0881L350.028 32.8362L350.078 32.9866ZM322.224 32.6956C323.719 33.614 326.048 36.3981 326.498 37.593L326.617 37.9084L326.286 37.8049C323.872 37.0549 322.307 34.4653 321.968 32.8674L321.929 32.678L321.887 32.4875L322.224 32.6956ZM354.825 32.678L354.782 32.8684C354.443 34.4659 352.879 37.0537 350.466 37.8049L350.133 37.9084L350.254 37.592C350.704 36.3975 353.032 33.6142 354.527 32.6956L354.865 32.4885L354.825 32.678ZM334.229 18.5403C330.105 20.1484 327.414 23.9258 327.315 28.219C327.929 27.7007 328.744 27.1743 329.102 27.011C329.552 26.8049 329.942 26.3273 329.807 25.7991C329.671 25.2739 329.021 23.2724 330.323 21.9036C331.628 20.5348 333.651 20.4061 335.648 22.01C337.742 23.6915 336.555 25.312 336.246 25.6965C336.057 25.9316 335.862 26.289 336.003 26.6184C336.259 27.2145 335.831 27.0335 335.676 27.261C335.618 27.3398 335.743 27.536 335.634 27.6301C335.527 27.7213 335.48 27.6835 335.438 27.761C335.397 27.8395 335.506 27.9845 335.391 28.0579C335.299 28.1131 335.177 27.9993 335.011 28.2014C334.835 28.4087 334.734 28.6656 334.101 28.6829C333.57 28.695 332.593 28.1404 332.238 28.6565C332.103 28.8544 332.141 29.0324 332.185 29.1428C332.385 29.6551 332.781 32.6265 332.74 32.8264C333.174 33.5588 334.569 33.2318 335.038 33.4583C335.093 33.4847 335.241 33.4976 335.391 33.3665C335.54 33.2349 336.002 32.8722 336.354 32.9055C336.491 32.9172 336.732 32.8854 336.571 33.1965C336.517 33.3011 336.667 33.3162 336.776 33.262C336.886 33.2098 337.753 32.8673 337.386 34.0911C337.019 35.3136 336.115 35.2435 335.457 35.012C335.307 34.9589 335.201 34.9324 334.955 35.012C334.71 35.0921 332.986 35.3534 332.632 35.3391C332.281 35.3274 331.654 35.3535 331.234 34.9456C330.976 35.3016 330.722 35.8301 330.869 36.3215C331.226 36.6404 331.602 36.9374 331.998 37.2083C332.732 37.3861 333.674 37.2972 334.386 37.053C334.576 36.9866 336.817 36.0094 338.08 35.9602C339.111 35.9215 339.138 35.0526 338.938 34.5793C338.767 34.1858 338.733 33.591 338.718 33.2229C338.704 32.8536 338.608 32.341 337.864 31.8C337.115 31.2595 336.667 30.9329 336.667 30.4583C336.667 30.1951 336.836 29.8518 336.979 29.7737C337.129 29.6924 337.17 29.5099 337.156 29.4065C337.142 29.2969 337.019 28.9055 337.469 28.9055C337.549 28.9052 337.698 28.8258 337.698 28.6682C337.698 28.5101 337.552 27.9897 337.916 28.0901C338.01 28.1166 338.175 27.9964 338.175 27.8254C338.175 27.6563 337.499 26.8393 338.57 26.8792C339.293 26.9022 340.129 26.5955 340.472 26.177C342.141 24.1371 344.73 23.7398 347.166 26.011C349.425 28.1164 348.965 31.3462 347.493 32.802C346.189 34.0911 345.131 34.3791 344.125 34.3792C343.935 34.3792 343.636 34.1946 343.555 34.6174C343.472 35.0326 343.503 36.1602 345.034 36.9749C347.682 35.017 349.394 31.9308 349.394 28.4651C349.394 26.3769 348.771 24.3578 347.597 22.6194C346.98 23.0206 346.336 23.3796 345.681 23.6946C345.729 23.8043 345.933 24.2795 345.933 24.2795L346.005 24.4465L345.385 24.1799C345.385 24.1799 345.299 23.9856 345.255 23.8899C345.147 23.9361 344.978 24.0058 344.968 24.01C344.968 24.01 344.592 23.8957 344.096 23.843C344.107 23.8391 344.716 23.6294 345.054 23.4778C344.676 22.7481 344.22 22.0591 343.691 21.429C343.036 21.7787 342.343 22.066 341.625 22.2815C341.854 22.8332 342.289 24.1624 342.289 24.1624L341.839 24.2981C341.839 24.2981 341.403 22.9597 341.172 22.4094C340.322 22.6249 339.455 22.7405 338.589 22.7581V24.8801C338.694 24.8736 338.891 24.863 338.898 24.8625C339.491 24.8305 340.147 24.7865 340.893 24.6917L341.23 24.6633L340.61 25.1936L340.58 25.1975C339.875 25.2576 339.29 25.304 338.589 25.3372V26.1018H338.11V22.76C337.874 22.7538 337.24 22.7321 337.035 22.7161L336.989 22.7122L336.969 22.6721C336.918 22.5765 336.86 22.4716 336.785 22.3655L336.686 22.2229L336.864 22.2405C337.146 22.2682 337.841 22.2963 338.11 22.303V20.4661C337.623 20.4461 337.143 20.3593 336.681 20.2102C336.473 20.5452 335.924 21.5481 335.924 21.5481C335.924 21.5481 335.858 21.4876 335.753 21.4202C335.652 21.3543 335.54 21.2902 335.533 21.2864C335.533 21.2864 336.036 20.3686 336.236 20.0403C335.863 19.881 335.509 19.6823 335.187 19.4446C334.773 19.7343 333.889 20.4622 333.889 20.4622C333.881 20.4598 333.701 20.4065 333.614 20.387C333.488 20.357 333.353 20.3377 333.35 20.3372C333.35 20.3372 334.352 19.4694 334.813 19.1438C334.601 18.9534 334.405 18.753 334.229 18.5403ZM419.292 23.9739C414.896 22.9062 410.41 22.7605 406.141 23.592C404.65 23.8825 403.225 24.2867 401.871 24.7942V24.7932C401.868 24.7944 401.864 24.7959 401.861 24.7971C401.845 24.8034 401.828 24.8108 401.812 24.8167C404.843 28.8409 407.912 32.4327 411.224 35.5051C414.14 33.1378 417.177 31.1284 420.199 29.5618C419.606 28.7739 419.182 27.9461 418.961 27.1165C418.655 25.9656 418.77 24.8835 419.292 23.9739ZM351.054 29.6057C351.806 30.6867 352.187 31.7975 352.162 32.8196C352.144 33.5755 351.895 34.2981 351.426 34.969L351.267 35.1975L351.134 34.9573C350.811 34.365 350.553 32.4476 350.591 30.9329C350.604 30.3974 350.659 29.9533 350.752 29.6516L350.854 29.3167L351.054 29.6057ZM325.999 29.6516C326.09 29.9537 326.147 30.397 326.161 30.9329C326.198 32.448 325.942 34.3652 325.616 34.9563L325.484 35.1965L325.328 34.969C324.858 34.2985 324.607 33.5755 324.588 32.8196C324.564 31.7972 324.946 30.6873 325.697 29.6067L325.8 29.4622L325.901 29.3167L325.999 29.6516ZM428.855 27.885C429.023 28.2823 429.186 28.6907 429.344 29.1125C429.898 30.5976 430.366 32.1854 430.751 33.8469C432.475 33.8032 433.93 33.2805 434.768 32.2903C433.008 30.6593 431.033 29.1741 428.855 27.885ZM427.811 27.342C427.139 27.5165 426.449 27.7214 425.743 27.9622C424.301 28.4556 422.835 29.0731 421.363 29.7961C422.248 30.76 423.407 31.6446 424.74 32.3391C426.499 33.255 428.34 33.7495 429.994 33.8362C429.625 32.2699 429.181 30.7725 428.656 29.3694C428.391 28.6586 428.108 27.9826 427.811 27.342ZM321.812 27.8157C322.767 28.9443 324.037 32.0934 324.077 33.1487L324.091 33.4651C324.091 33.4651 323.823 33.2989 323.814 33.2922C321.491 31.8171 321.431 29.0381 321.514 27.9104L321.528 27.7034L321.543 27.4954L321.812 27.8157ZM355.223 27.7034L355.238 27.9104C355.319 29.0375 355.26 31.8166 352.936 33.2922C352.936 33.2934 352.668 33.4621 352.663 33.4651L352.675 33.1487C352.713 32.0934 353.987 28.9443 354.938 27.8157L355.209 27.4954L355.223 27.7034ZM298.613 27.3762C295.88 27.3762 294.262 29.613 294.262 32.3645H303.038C303.107 29.553 301.791 27.3764 298.613 27.3762ZM433.971 26.719C432.472 26.5734 430.774 26.6939 428.928 27.0803C431.233 28.4146 433.325 29.9609 435.181 31.6692C435.532 30.9623 435.593 30.1285 435.355 29.2366C435.131 28.3926 434.649 27.5329 433.971 26.719ZM325.872 26.4016C325.924 27.5928 324.979 30.1542 324.268 31.1243L324.074 31.385L323.97 31.0823C323.853 30.7551 323.785 30.4411 323.765 30.1487C323.636 28.2496 325.125 26.7155 325.586 26.2903L325.723 26.1653L325.855 26.0403L325.872 26.4016ZM351.031 26.1653L351.165 26.2903C351.626 26.7142 353.117 28.2496 352.986 30.1487C352.966 30.4411 352.899 30.754 352.784 31.0823L352.676 31.385L352.483 31.1233C351.771 30.1526 350.831 27.5933 350.88 26.4026L350.895 26.0403L351.031 26.1653ZM420.007 24.2102C419.517 24.9733 419.401 25.9127 419.671 26.928C419.874 27.6943 420.291 28.4745 420.874 29.2209C422.43 28.448 423.981 27.79 425.506 27.2688C425.986 27.1045 426.458 26.9562 426.923 26.8215C424.69 25.679 422.38 24.7911 420.039 24.1653C420.029 24.1808 420.017 24.1946 420.007 24.2102ZM322.912 23.3733C323.387 24.5483 323.603 27.1811 323.439 28.4368L323.292 29.1487L323.177 29.0061C323.177 29.0061 323.066 28.8668 323.067 28.8684C322.076 27.7 322.043 26.1338 322.188 25.0266C322.291 24.245 322.487 23.6575 322.595 23.3772L322.672 23.1741L322.747 22.9739L322.912 23.3733ZM354.08 23.1731L354.159 23.3762C354.265 23.6569 354.46 24.245 354.563 25.0266C354.711 26.1338 354.676 27.6998 353.685 28.8694C353.68 28.8736 353.574 29.0071 353.574 29.0071L353.459 29.1477L353.312 28.4377C353.146 27.1802 353.364 24.5473 353.842 23.3723L354.005 22.9739L354.08 23.1731ZM350.06 22.634L350.249 22.7493C352.025 23.8455 352.841 25.1512 352.744 26.7385L352.724 27.1028L352.464 26.886C351.507 26.0872 350.331 24.072 349.997 22.9329L349.873 22.5178L350.06 22.634ZM326.84 22.9856C326.48 24.1166 325.263 26.1097 324.29 26.8889L324.029 27.1008L324.014 26.7385C323.949 25.1488 324.79 23.8594 326.589 22.7971L326.78 22.6848L326.97 22.5715L326.84 22.9856ZM425.572 22.3694C426.536 23.4855 427.424 24.8619 428.218 26.4827C430.031 26.0529 431.708 25.8616 433.219 25.9124C432.403 25.1265 431.406 24.4091 430.286 23.8254C428.718 23.0087 427.082 22.5259 425.572 22.3694ZM423.147 20.217C423.738 20.5973 424.31 21.0606 424.86 21.6047C426.682 21.6583 428.706 22.1747 430.625 23.1741C432.109 23.9474 433.372 24.9234 434.324 25.9954C435.011 26.0773 435.657 26.2158 436.261 26.4075C432.53 23.3721 428.054 21.2055 423.147 20.217ZM424.495 22.3127C422.875 22.3151 421.475 22.7312 420.57 23.5491C422.83 24.1788 425.058 25.0493 427.217 26.1506C426.397 24.6136 425.48 23.3247 424.495 22.3127ZM325.901 20.5823C325.613 22.2188 324.904 23.6373 323.96 24.4758L323.745 24.6653C323.743 24.6572 323.668 24.3348 323.667 24.3333C323.666 24.329 323.645 24.2259 323.644 24.217C323.407 22.5397 324.949 21.0108 325.624 20.4329L325.804 20.2776L325.984 20.1213L325.901 20.5823ZM350.948 20.2786L351.129 20.4319C351.804 21.0113 353.346 22.5402 353.108 24.2161C353.106 24.2239 353.083 24.3333 353.083 24.3333C353.081 24.3467 353.008 24.6653 353.008 24.6653L352.793 24.4749C351.848 23.6375 351.138 22.2195 350.85 20.5823L350.768 20.1223L350.948 20.2786ZM417.102 19.6165C411.288 19.6165 405.86 21.2463 401.251 24.0676C401.286 24.1144 401.321 24.1605 401.355 24.2073C401.399 24.1898 401.443 24.1717 401.487 24.1545V24.1536C402.915 23.6098 404.423 23.1795 406.001 22.8723C410.468 22.0022 415.164 22.1754 419.755 23.3333C420.648 22.3343 422.084 21.7625 423.773 21.6301C422.519 20.5472 421.169 19.8976 419.772 19.7317C418.893 19.6556 418.001 19.6165 417.102 19.6165ZM345.443 20.2678C345.026 20.6086 344.575 20.9194 344.104 21.1985C344.636 21.8445 345.098 22.544 345.477 23.2805C346.12 22.9749 346.741 22.6271 347.33 22.2415C346.79 21.5123 346.156 20.8475 345.443 20.2678ZM340.037 20.2102C339.57 20.3621 339.083 20.4473 338.589 20.47V22.304C339.394 22.2868 340.199 22.1777 340.981 21.9836C340.704 21.3711 340.389 20.7767 340.037 20.2102ZM341.532 19.4465C341.204 19.6855 340.852 19.8816 340.481 20.0413C340.84 20.6272 341.162 21.2379 341.441 21.8586C342.11 21.6607 342.762 21.3973 343.379 21.0745C342.826 20.4696 342.206 19.9207 341.532 19.4465ZM272.384 21.5745H268.453V18.1018H272.384V21.5745ZM342.487 18.5432C342.311 18.7586 342.114 18.9598 341.904 19.1467C342.597 19.6468 343.233 20.2157 343.798 20.843C344.245 20.5838 344.672 20.2945 345.067 19.9768C344.271 19.3854 343.406 18.9024 342.487 18.5432ZM338.11 18.2502C337.687 18.7514 337.293 19.272 336.939 19.8059C337.32 19.9191 337.714 19.9885 338.11 20.0081V18.2502ZM338.589 20.0081C338.992 19.9901 339.392 19.9203 339.777 19.8059C339.412 19.252 339.012 18.7245 338.589 18.2288V20.0081ZM337.587 18.1555C336.889 18.4334 336.224 18.7722 335.603 19.1711C335.876 19.3596 336.168 19.5209 336.484 19.6497C336.82 19.1313 337.195 18.6318 337.587 18.1555ZM339.126 18.1516C339.525 18.638 339.902 19.1381 340.235 19.6487C340.545 19.5207 340.842 19.3612 341.118 19.1711C340.492 18.7699 339.824 18.428 339.126 18.1516ZM339.581 17.843C340.256 18.1291 340.902 18.4733 341.509 18.8772C341.693 18.7214 341.862 18.554 342.02 18.3733C341.237 18.106 340.419 17.9309 339.581 17.843ZM337.149 17.8381C336.308 17.9244 335.488 18.1011 334.696 18.3704C334.853 18.5456 335.02 18.7154 335.206 18.8762C335.819 18.4711 336.469 18.1251 337.149 17.8381Z" fill="#222222"/>
<path d="M203.758 0.000243913V94.0002" stroke="#CACACA" stroke-width="1.5"/>
<path d="M95.6905 1.89216C95.9743 1.3784 95.8704 0.736969 95.4387 0.33876C95.0073 -0.0598297 94.3596 -0.112144 93.87 0.211105C79.7985 9.50961 62.0756 23.097 48.3867 39.7924C42.9364 37.7401 37.887 36.2753 33.3623 35.2384C33.3638 35.2946 33.3705 35.3493 33.3705 35.4063C33.3705 36.2589 33.1636 37.0627 32.8048 37.7775C37.1159 38.7582 41.7675 40.0945 46.694 41.9001C42.888 46.7372 39.4341 51.8221 36.5167 57.1299C33.8132 62.0474 31.9955 66.3738 30.7673 69.985C30.4975 67.8425 30.0661 65.5188 29.3947 63.0913C26.982 54.373 20.9476 42.8539 5.99615 35.4875C9.65886 35.2013 15.4399 35.0822 22.7961 36.0067C22.7739 35.8091 22.7598 35.6093 22.7598 35.4063C22.7598 34.7059 22.8996 34.0387 23.1471 33.4262C9.67643 31.735 1.37852 33.4664 1.00686 33.5468C0.45757 33.6655 0.0507779 34.1289 0.00432052 34.6895C-0.0417464 35.2493 0.284236 35.7736 0.806979 35.9801C14.5088 41.3989 23.2904 50.7165 26.9082 63.675C28.0279 67.6836 28.4526 71.4411 28.5658 74.4816C29.217 74.1958 29.9342 74.0346 30.69 74.0346C30.8333 74.0346 30.9742 74.0447 31.1151 74.0564C31.4696 74.0845 31.8139 74.1478 32.1454 74.2426C33.2522 70.1833 35.2506 64.6892 38.8712 58.1442C41.8222 52.8098 45.3311 47.7038 49.1984 42.8492C53.4151 44.5021 57.816 46.4982 62.3618 48.9054C62.6421 48.0786 63.1196 47.3438 63.7395 46.7555C59.282 44.3846 54.9833 42.4084 50.8915 40.7664C63.1395 26.0121 78.5805 13.7275 91.6155 4.80296C90.6399 7.3386 89.4328 11.0243 88.3892 15.8305C88.458 15.8278 88.5251 15.8204 88.5946 15.8204C89.4261 15.8204 90.2108 16.0183 90.9124 16.3607C91.1821 15.1173 91.4566 13.964 91.7279 12.9287C93.6096 5.72782 95.6706 1.92886 95.6905 1.89216Z" fill="#277AFF"/>
<path d="M86.7281 26.0865C86.1464 31.3272 85.8579 37.3597 86.103 44.1682C83.9035 44.6062 78.6519 45.7727 72.035 48.0503C72.4469 48.7983 72.6827 49.6552 72.689 50.566C81.1848 47.6174 87.4721 46.504 87.6349 46.4766C88.2693 46.3685 88.7249 45.8051 88.6964 45.1622C88.381 38.003 88.6882 31.7184 89.2859 26.3821C89.0591 26.4117 88.8296 26.4324 88.5945 26.4324C87.9371 26.4324 87.3097 26.3059 86.7281 26.0865Z" fill="#277AFF"/>
<path d="M81.1238 60.8083C77.0824 60.7509 70.4479 60.925 62.9964 62.2032C53.078 63.9049 44.7195 67.0976 38.2116 71.5977C45.4226 63.6941 54.8285 58.0845 63.4992 54.2016C62.9094 53.5652 62.4748 52.786 62.2519 51.9201C52.5841 56.2723 40.6668 63.4322 32.6406 74.4109C33.0669 74.58 33.4648 74.8041 33.8286 75.0726C34.518 75.5809 35.0791 76.2505 35.4573 77.027C52.7395 61.0574 84.6518 63.4907 85.0059 63.5196C85.568 63.5645 86.0939 63.2389 86.3 62.7142C86.5058 62.1891 86.343 61.5914 85.8991 61.2436C81.3588 57.6875 76.8918 54.5748 72.5373 51.8455C72.3308 52.7001 71.9178 53.4731 71.3533 54.111C74.56 56.1278 77.8202 58.3515 81.1238 60.8083Z" fill="#277AFF"/>
<path d="M67.3847 47.645C66.7304 47.645 66.1311 47.8655 65.6408 48.2267C65.0017 48.6979 64.5535 49.415 64.4512 50.2407C64.4368 50.3586 64.4294 50.4789 64.4294 50.6007C64.4294 51.823 65.175 52.8747 66.2354 53.3241C66.5891 53.474 66.9775 53.5568 67.3847 53.5568C67.5885 53.5568 67.7876 53.5361 67.9797 53.4963C69.3258 53.2202 70.3404 52.0268 70.3404 50.6007C70.3404 48.9708 69.015 47.645 67.3847 47.645Z" fill="#222222"/>
<path d="M27.4707 38.3017C27.6628 38.3415 27.8619 38.3618 28.0657 38.3618C29.6948 38.3618 31.0206 37.036 31.0206 35.4061C31.0206 33.7762 29.6948 32.4504 28.0657 32.4504C26.4354 32.4504 25.11 33.7762 25.11 35.4061C25.11 36.8318 26.1246 38.0257 27.4707 38.3017Z" fill="#222222"/>
<path d="M86.7037 18.8737C86.3808 19.1451 86.1149 19.482 85.9299 19.8634C85.7441 20.2456 85.639 20.6727 85.639 21.1267C85.639 21.254 85.6472 21.3793 85.6629 21.5023C85.7729 22.3643 86.2555 23.1111 86.943 23.5765C87.415 23.8954 87.9834 24.082 88.5947 24.082C89.0023 24.082 89.3908 23.9993 89.7441 23.8494C90.5862 23.4929 91.2198 22.7527 91.4493 21.8529C91.479 21.7361 91.5044 21.6174 91.5223 21.4968C91.5403 21.3754 91.5504 21.2524 91.5504 21.1267C91.5504 19.4968 90.225 18.1702 88.5947 18.1702C87.8721 18.1702 87.2174 18.4416 86.7037 18.8737Z" fill="#222222"/>
<path d="M32.7788 77.2515C32.7507 77.2234 32.7156 77.2023 32.6867 77.1754C32.4376 76.9458 32.1553 76.7514 31.8395 76.6175C31.4858 76.4676 31.0974 76.3848 30.6898 76.3848C29.0607 76.3848 27.7349 77.7106 27.7349 79.3405C27.7349 80.3591 28.2525 81.259 29.0388 81.7911C29.1957 81.8969 29.364 81.989 29.5408 82.0636C29.8942 82.2135 30.2822 82.2966 30.6898 82.2966C31.4694 82.2966 32.1803 81.9929 32.7085 81.4975C32.7843 81.4264 32.8561 81.3519 32.924 81.2738C33.0013 81.1844 33.0736 81.0903 33.1399 80.9919C33.4589 80.5199 33.6455 79.9515 33.6455 79.3405C33.6455 78.5609 33.3367 77.8566 32.842 77.3276C32.8194 77.3038 32.8026 77.2749 32.7788 77.2515Z" fill="#222222"/>
<path d="M115.818 34.9768C116.362 34.9768 117.007 35.0263 117.753 35.1243C118.499 35.2226 118.976 35.295 119.185 35.3411H125.95V38.0305L122.914 38.8108C123.469 39.6783 123.747 40.6503 123.747 41.7258C123.747 43.8077 123.021 45.4298 121.57 46.592C120.118 47.7546 118.102 48.3352 115.523 48.3352L114.569 48.2834L113.789 48.1975C113.245 48.6136 112.974 49.0762 112.974 49.5852C112.974 50.3484 113.945 50.7297 115.889 50.7297H119.185C121.312 50.7298 122.934 51.187 124.051 52.1008C125.167 53.0148 125.725 54.3562 125.725 56.1262C125.725 58.3923 124.78 60.1508 122.889 61.3997C120.998 62.6493 118.282 63.2737 114.743 63.2737C112.037 63.2737 109.968 62.802 108.54 61.8596C107.112 60.9169 106.399 59.5957 106.398 57.8958C106.398 56.7273 106.763 55.7498 107.491 54.9631C108.22 54.177 109.289 53.6159 110.7 53.2805C110.157 53.049 109.683 52.6707 109.278 52.1438C108.874 51.6181 108.671 51.0597 108.671 50.47C108.671 49.7302 108.885 49.1142 109.312 48.6223C109.74 48.1304 110.359 47.6478 111.169 47.1731C110.151 46.7339 109.345 46.0281 108.749 45.0569C108.153 44.0852 107.854 42.9397 107.854 41.6213C107.855 39.5051 108.544 37.8689 109.92 36.7122C111.296 35.5555 113.262 34.9768 115.818 34.9768ZM146.734 34.9768C147.278 34.9768 147.924 35.0263 148.67 35.1243C149.415 35.2226 149.892 35.295 150.101 35.3411H156.866V38.0305L153.831 38.8108C154.386 39.6783 154.663 40.6503 154.663 41.7258C154.663 43.8077 153.938 45.4298 152.486 46.592C151.035 47.7546 149.018 48.3352 146.439 48.3352L145.485 48.2834L144.705 48.1975C144.161 48.6136 143.89 49.0762 143.89 49.5852C143.89 50.3484 144.861 50.7297 146.805 50.7297H150.101C152.229 50.7297 153.85 51.1869 154.967 52.1008C156.083 53.0148 156.642 54.3562 156.642 56.1262C156.642 58.3923 155.696 60.1508 153.805 61.3997C151.914 62.6493 149.198 63.2737 145.659 63.2737C142.952 63.2736 140.884 62.802 139.456 61.8596C138.028 60.9169 137.315 59.5956 137.314 57.8958C137.314 56.7273 137.679 55.7498 138.407 54.9631C139.136 54.1769 140.205 53.6159 141.616 53.2805C141.073 53.049 140.599 52.6707 140.194 52.1438C139.79 51.6181 139.587 51.0597 139.587 50.47C139.587 49.7302 139.802 49.1142 140.229 48.6223C140.657 48.1305 141.275 47.6477 142.085 47.1731C141.067 46.7339 140.261 46.028 139.665 45.0569C139.069 44.0852 138.771 42.9397 138.771 41.6213C138.772 39.5051 139.46 37.8689 140.836 36.7122C142.213 35.5555 144.179 34.9769 146.734 34.9768ZM114.396 54.9807C113.424 54.9807 112.611 55.2087 111.958 55.6663C111.305 56.123 110.978 56.7269 110.978 57.4788C110.978 58.2075 111.328 58.78 112.027 59.1965C112.727 59.6127 113.708 59.8206 114.969 59.8206C116.865 59.8205 118.352 59.5607 119.428 59.0403C120.503 58.5199 121.041 57.8086 121.041 56.9065C121.041 56.1776 120.722 55.6747 120.086 55.3967C119.45 55.1192 118.467 54.9807 117.138 54.9807H114.396ZM145.312 54.9807C144.341 54.9807 143.528 55.2087 142.874 55.6663C142.221 56.123 141.895 56.727 141.895 57.4788C141.895 58.2076 142.244 58.78 142.944 59.1965C143.644 59.6126 144.624 59.8206 145.885 59.8206C147.781 59.8206 149.268 59.5607 150.344 59.0403C151.42 58.5199 151.957 57.8087 151.957 56.9065C151.957 56.1777 151.639 55.6747 151.003 55.3967C150.367 55.1192 149.383 54.9807 148.054 54.9807H145.312ZM168.005 34.9417C170.607 34.9417 172.602 35.5091 173.99 36.6418C175.378 37.7756 176.072 39.4996 176.072 41.8127V54.7375H172.377L171.354 52.1008H171.214C170.323 53.2228 169.407 54.0005 168.465 54.4338C167.522 54.868 166.292 55.0842 164.777 55.0842C162.915 55.0842 161.45 54.5531 160.38 53.4885C159.309 52.4251 158.774 50.9095 158.774 48.9426C158.774 46.8843 159.495 45.3664 160.935 44.3889C162.375 43.4118 164.546 42.8707 167.449 42.7668L170.815 42.6624V41.8127C170.815 39.8468 169.809 38.8627 167.797 38.8625C166.247 38.8625 164.425 39.3319 162.332 40.2688L160.579 36.6946C162.811 35.5261 165.287 34.9417 168.005 34.9417ZM134.434 54.7375H129.142V35.3411H134.434V54.7375ZM168.769 45.8206C167.23 45.8666 166.085 46.1445 165.333 46.6536C164.581 47.1622 164.205 47.9372 164.205 48.9778C164.205 50.4695 165.061 51.2161 166.773 51.2161C167.999 51.216 168.979 50.8633 169.714 50.1575C170.448 49.452 170.815 48.515 170.815 47.3469V45.7502L168.769 45.8206ZM115.818 38.1868C113.875 38.1868 112.904 39.3549 112.904 41.6907C112.904 42.7432 113.144 43.5768 113.624 44.1897C114.104 44.8027 114.835 45.1086 115.818 45.1086C116.813 45.1086 117.542 44.8027 118.004 44.1897C118.467 43.5768 118.699 42.7432 118.699 41.6907C118.699 39.3548 117.738 38.1868 115.818 38.1868ZM146.734 38.1868C144.792 38.1869 143.82 39.3549 143.82 41.6907C143.82 42.7432 144.06 43.5768 144.54 44.1897C145.02 44.8028 145.752 45.1086 146.734 45.1086C147.729 45.1086 148.458 44.8028 148.921 44.1897C149.383 43.5768 149.615 42.7432 149.615 41.6907C149.615 39.3548 148.654 38.1868 146.734 38.1868ZM131.794 27.1926C133.46 27.1926 134.816 28.5486 134.816 30.2151C134.816 31.8813 133.46 33.2375 131.794 33.2375C130.127 33.2374 128.771 31.8812 128.771 30.2151C128.772 28.5487 130.127 27.1928 131.794 27.1926Z" fill="#222222"/>
</svg>
