<svg version="1.1" id="Layer_1" xmlns="http://www.w3.org/2000/svg" xmlns:xlink="http://www.w3.org/1999/xlink" x="0px" y="0px"
	 width="100%" viewBox="0 0 364 362" enable-background="new 0 0 364 362" xml:space="preserve">
<path fill="#FFFFFF" opacity="1.000000" stroke="none" 
	d="
M197.000000,363.000000 
	C131.355774,363.000000 66.211540,363.000000 1.033653,363.000000 
	C1.033653,242.397324 1.033653,121.794624 1.033653,1.095967 
	C122.227509,1.095967 243.455124,1.095967 364.841370,1.095967 
	C364.841370,121.666504 364.841370,242.333237 364.841370,363.000000 
	C309.128021,363.000000 253.314011,363.000000 197.000000,363.000000 
M112.029289,315.789215 
	C112.145782,324.758240 120.733490,329.654633 128.690262,325.753143 
	C133.484070,321.049164 134.587860,313.787872 131.461731,309.873322 
	C128.175339,305.758057 123.712242,305.175568 119.344055,306.197235 
	C115.213409,307.163422 112.673187,310.518280 112.029289,315.789215 
M194.671204,181.816528 
	C195.819290,180.224854 196.967377,178.633179 198.676346,176.814087 
	C199.465088,175.914154 200.253815,175.014206 201.655487,173.832199 
	C202.808807,172.235291 203.962128,170.638397 205.719894,168.774170 
	C208.494110,165.887527 211.268326,163.000885 214.655518,159.832199 
	C215.808838,158.235306 216.962158,156.638412 218.720688,154.773514 
	C252.554794,120.483292 288.835754,89.171112 328.986267,62.568562 
	C329.493408,62.949207 330.000519,63.329857 330.507629,63.710506 
	C327.490692,75.045700 324.473755,86.380898 321.496857,97.565590 
	C323.862610,98.026817 325.931030,98.430084 328.765991,98.969505 
	C329.827789,98.034126 331.544464,97.270271 331.841888,96.134697 
	C333.411560,90.141808 334.430298,84.004074 336.015839,78.016052 
	C337.496979,72.422386 339.255280,66.882050 341.257690,61.453255 
	C342.673828,57.613945 344.846771,54.058983 346.384247,50.256721 
	C347.020325,48.683613 347.693604,46.085987 346.921051,45.199272 
	C345.314056,43.354828 343.886841,40.347095 339.927673,43.300907 
	C328.048279,52.163742 315.524109,60.161694 303.634277,69.011337 
	C290.910736,78.481491 278.381317,88.247704 266.208344,98.412994 
	C252.446259,109.905327 238.928070,121.718971 225.777832,133.904419 
	C217.158234,141.891617 209.304901,150.716232 201.248428,159.297272 
	C195.169586,165.771942 189.312668,172.454956 183.702255,178.663147 
	C166.444016,173.440262 149.576584,168.335632 132.498383,163.167221 
	C131.875961,165.893600 131.521301,167.447098 131.028885,169.773499 
	C130.892441,171.058502 130.755981,172.343491 130.615509,173.666336 
	C132.247879,174.070038 134.161789,174.436432 136.008331,175.017120 
	C149.643433,179.304977 163.265106,183.635574 176.270447,188.236374 
	C165.396851,204.446762 154.105972,220.398163 143.819061,236.972672 
	C138.367859,245.755737 134.660980,255.621384 130.026474,265.766113 
	C128.017365,270.232941 126.008270,274.699799 123.327606,278.744904 
	C119.746635,260.257660 114.482170,242.319550 104.942238,225.947052 
	C95.452286,209.660309 83.985626,194.931976 68.464546,183.897049 
	C59.219627,177.324249 49.579876,171.306778 41.039650,165.006470 
	C45.529900,165.004318 50.026825,164.842743 54.509125,165.030472 
	C67.009117,165.553955 79.503044,166.222244 92.836700,166.971085 
	C93.858063,166.674667 95.653061,166.559677 95.772179,166.051712 
	C96.426125,163.262955 96.669632,160.377945 97.069885,157.408554 
	C88.312416,156.576523 80.013863,155.079056 71.729439,155.153534 
	C56.095348,155.294067 40.456177,156.142838 24.852396,157.192169 
	C22.086882,157.378128 17.464886,156.863281 17.029219,162.780472 
	C16.197197,167.092178 19.923813,167.598419 22.376036,168.640503 
	C46.813625,179.025589 68.400940,193.097519 85.004738,214.354507 
	C99.063744,232.353546 107.872787,252.505249 111.960678,274.815613 
	C113.477989,283.096619 114.489288,291.470276 115.681961,299.470459 
	C118.811295,299.256531 121.905907,299.044952 125.771690,298.971222 
	C127.500534,299.352539 129.229370,299.733826 131.242722,300.736450 
	C133.850845,303.092224 136.458954,305.447998 138.780502,307.544922 
	C148.137451,301.375305 157.158936,294.582397 166.941986,289.164642 
	C183.660507,279.906097 201.653030,273.910889 220.361404,269.699646 
	C241.714493,264.893097 263.241089,262.339447 285.074829,262.012146 
	C293.715332,261.882599 302.357849,261.888947 311.804718,261.969360 
	C312.867065,261.026459 314.867767,260.020081 314.809113,259.153015 
	C314.656189,256.892365 314.295685,253.826538 312.787048,252.616531 
	C305.689606,246.923950 298.259186,241.631454 290.792145,236.418869 
	C283.148376,231.082916 275.323975,226.005676 267.098541,220.493454 
	C265.792816,223.526154 264.838684,225.742340 263.288788,228.286865 
	C264.147186,229.516159 264.753510,231.104233 265.906433,231.914398 
	C271.771576,236.035751 277.881561,239.812332 283.695007,244.002121 
	C286.969177,246.361816 289.836151,249.286530 291.965118,251.993011 
	C284.544434,252.326355 277.079346,252.259384 269.712219,253.075943 
	C254.128555,254.803192 238.495575,256.420013 223.067017,259.130554 
	C201.969254,262.837128 181.893433,269.931091 162.314835,280.041687 
	C161.245392,280.344604 160.175964,280.647552 159.033752,280.252289 
	C160.506912,278.521423 161.732849,276.468018 163.496567,275.116180 
	C170.687744,269.604340 177.728790,263.799805 185.405457,259.038757 
	C200.414200,249.730377 215.811737,241.048889 231.779953,232.017258 
	C233.483078,231.347336 235.186188,230.677429 237.371811,229.817719 
	C235.903183,228.525864 234.880478,227.892715 234.241257,226.988480 
	C233.611221,226.097198 233.631851,224.650940 232.890518,223.957672 
	C231.983017,223.108994 230.490814,222.206497 229.411057,222.371552 
	C227.538910,222.657761 225.740662,223.648254 223.996033,224.513916 
	C206.135483,233.375839 188.798416,243.085068 173.047562,255.446747 
	C160.350815,265.411469 148.036880,275.770630 137.493225,288.063477 
	C136.821991,288.846069 136.598450,290.012604 135.863831,291.625946 
	C134.241928,293.139526 132.620026,294.653076 130.331146,295.748230 
	C130.535355,294.182190 130.515152,292.546417 130.977020,291.060455 
	C139.456131,263.780334 153.141052,239.103851 169.000992,215.542831 
	C173.892120,208.276749 179.069275,201.203217 184.768738,193.727005 
	C186.505112,193.311981 188.364044,192.296631 189.949631,192.620300 
	C192.431549,193.126892 194.747543,194.497681 197.100845,195.574417 
	C207.859436,200.496780 218.606522,205.444260 229.860184,210.896423 
	C230.906982,210.906586 232.541122,211.344910 232.899506,210.853271 
	C234.503860,208.652359 235.744751,206.186523 237.523972,203.113052 
	C227.203537,198.298645 217.173660,193.700058 207.220840,188.940369 
	C202.767776,186.810806 198.469269,184.358063 194.025345,182.008255 
	C194.025345,182.008255 194.058014,182.088943 194.671204,181.816528 
M324.999664,136.634537 
	C324.543243,129.143341 318.394867,135.245331 316.083557,132.183807 
	C315.676910,132.372864 315.270264,132.561905 314.863586,132.750961 
	C314.044647,153.312714 313.225677,173.874481 312.412598,194.288895 
	C299.178833,197.928482 285.731873,201.581406 272.313446,205.336075 
	C265.541077,207.231064 265.581024,207.311172 266.951569,214.372406 
	C267.167572,215.485321 267.155365,216.642532 267.180634,216.950287 
	C284.546295,212.595078 301.866089,208.354309 319.092041,203.761459 
	C320.698578,203.333115 322.764313,200.723267 322.839050,199.047058 
	C323.752350,178.560349 324.333099,158.058823 324.999664,136.634537 
M124.078773,166.753357 
	C124.064247,165.413452 124.261879,164.030289 123.998886,162.741058 
	C122.785484,156.792999 118.538902,153.473694 113.022186,154.006577 
	C107.517403,154.538300 102.883644,159.016098 103.054634,164.162262 
	C103.290466,171.260208 106.058220,174.263840 113.643433,175.858429 
	C117.630508,176.696594 122.517303,172.607468 124.078773,166.753357 
M258.080414,210.616959 
	C255.110443,206.442413 250.498489,206.093201 246.496811,207.284958 
	C243.634399,208.137421 240.050171,211.011429 239.351273,213.659851 
	C238.254517,217.815964 237.804245,222.982941 242.869049,225.979187 
	C247.731873,228.855927 253.473557,228.669449 257.047485,225.412796 
	C260.284149,222.463470 260.948761,216.570068 258.080414,210.616959 
M317.849060,106.031128 
	C312.615112,108.313576 311.072357,112.965294 312.262573,117.716789 
	C313.017334,120.729958 315.778625,124.422607 318.533173,125.476746 
	C322.703888,127.072815 327.662048,126.801483 331.053375,122.439735 
	C333.402405,119.418564 333.844208,112.610100 331.758789,109.425491 
	C329.437714,105.880974 323.780365,104.329414 317.849060,106.031128 
z"/>
<path fill="#277AFF" opacity="1.000000" stroke="none" 
	d="
M91.999367,166.833374 
	C79.503044,166.222244 67.009117,165.553955 54.509125,165.030472 
	C50.026825,164.842743 45.529900,165.004318 40.214409,165.044464 
	C35.012871,167.991562 34.958408,168.746140 38.903954,170.959015 
	C56.182877,180.649902 72.073128,191.978851 84.994514,207.326660 
	C95.036156,219.253998 103.407524,232.158279 108.851311,246.641556 
	C113.473862,258.939911 116.629700,271.789551 120.510742,284.647797 
	C125.130074,284.974823 125.418221,284.603149 123.999161,279.166626 
	C126.008270,274.699799 128.017365,270.232941 130.429688,265.318878 
	C131.821381,263.391602 132.949844,261.985352 133.775299,260.419373 
	C138.547501,251.365860 142.622879,241.874496 148.117065,233.288300 
	C156.743912,219.806396 166.370377,206.966660 175.400818,193.737076 
	C176.456497,192.190491 176.420761,189.898911 176.891006,187.952713 
	C163.265106,183.635574 149.643433,179.304977 136.008331,175.017120 
	C134.161789,174.436432 132.247879,174.070038 130.615509,173.666336 
	C130.755981,172.343491 130.892441,171.058502 131.507309,169.386993 
	C133.452957,169.217056 134.975555,169.251587 136.378799,169.678467 
	C149.716766,173.736130 163.105225,177.648972 176.322571,182.071411 
	C181.479431,183.796875 184.769409,182.360413 188.033371,178.508377 
	C195.004608,170.281158 201.882446,161.929688 209.419357,154.237381 
	C220.945450,142.473633 232.641129,130.826111 244.921814,119.865356 
	C257.767273,108.400520 271.039825,97.344711 284.759216,86.945930 
	C302.331116,73.627090 320.518616,61.118885 338.513794,48.364246 
	C339.531860,47.642658 341.209839,47.852077 342.580658,47.628174 
	C342.773956,49.297684 343.517639,51.144272 343.049011,52.600807 
	C341.986359,55.903618 339.998352,58.912155 338.968597,62.221455 
	C335.183716,74.385429 331.636261,86.623291 327.999451,98.833351 
	C325.931030,98.430084 323.862610,98.026817 321.496857,97.565590 
	C324.473755,86.380898 327.490692,75.045700 330.507629,63.710506 
	C330.000519,63.329857 329.493408,62.949207 328.986267,62.568562 
	C288.835754,89.171112 252.554794,120.483292 218.051880,154.928711 
	C216.269547,156.760681 215.156036,158.437469 214.042542,160.114258 
	C211.268326,163.000885 208.494110,165.887527 205.051483,168.929047 
	C203.269577,170.760696 202.156067,172.437485 201.042542,174.114258 
	C200.253815,175.014206 199.465088,175.914154 198.030777,176.948730 
	C196.276154,178.751892 195.167084,180.420425 194.058014,182.088943 
	C194.058014,182.088943 194.025345,182.008255 193.699036,182.047943 
	C188.850708,185.117386 188.823959,186.484314 193.459137,188.703293 
	C196.744492,190.276093 200.200714,191.489090 203.507065,193.021469 
	C211.939957,196.929840 220.367981,200.852692 228.718521,204.932358 
	C231.366318,206.225952 233.709061,208.038788 229.357742,210.382706 
	C218.606522,205.444260 207.859436,200.496780 197.100845,195.574417 
	C194.747543,194.497681 192.431549,193.126892 189.949631,192.620300 
	C188.364044,192.296631 186.505112,193.311981 184.086044,193.903015 
	C180.711502,197.113617 177.790451,199.976196 175.363617,203.209671 
	C153.466537,232.384857 135.561569,263.679962 125.000519,298.833405 
	C121.905907,299.044952 118.811295,299.256531 115.681961,299.470459 
	C114.489288,291.470276 113.477989,283.096619 111.960678,274.815613 
	C107.872787,252.505249 99.063744,232.353546 85.004738,214.354507 
	C68.400940,193.097519 46.813625,179.025589 22.376036,168.640503 
	C19.923813,167.598419 16.197197,167.092178 17.524040,162.390289 
	C26.504599,161.006622 34.986572,159.228256 43.476879,159.187546 
	C59.767849,159.109421 76.063545,160.017319 92.573776,160.522781 
	C92.322304,163.285538 92.160835,165.059448 91.999367,166.833374 
z"/>
<path fill="#277AFF" opacity="1.000000" stroke="none" 
	d="
M130.998138,296.166626 
	C132.620026,294.653076 134.241928,293.139526 136.370270,291.307800 
	C139.072296,289.335754 141.420410,287.848206 143.436813,285.998993 
	C151.794846,278.333923 159.425461,269.708527 168.494446,263.025055 
	C182.067322,253.022415 196.515778,244.181778 210.821014,235.212433 
	C216.211365,231.832703 222.240509,229.471817 228.130676,226.571503 
	C229.357346,228.899170 230.202820,230.503525 231.048309,232.107880 
	C215.811737,241.048889 200.414200,249.730377 185.405457,259.038757 
	C177.728790,263.799805 170.687744,269.604340 163.496567,275.116180 
	C161.732849,276.468018 160.506912,278.521423 158.796967,280.712494 
	C158.040115,281.448456 157.520050,281.724213 156.644272,282.037109 
	C154.715820,283.482178 153.143082,284.890106 151.570358,286.298065 
	C151.957016,286.987579 152.343674,287.677063 152.730347,288.366577 
	C155.318420,287.484955 158.013321,286.831451 160.474518,285.678894 
	C167.838165,282.230713 174.919495,278.109192 182.451080,275.102264 
	C215.977341,261.717163 251.064041,256.554230 286.965790,256.000336 
	C288.797638,255.972076 290.675934,256.180145 292.442230,255.826599 
	C293.347778,255.645355 294.053162,254.464310 294.849030,253.735092 
	C294.194855,253.142303 293.540710,252.549515 292.886536,251.956726 
	C289.836151,249.286530 286.969177,246.361816 283.695007,244.002121 
	C277.881561,239.812332 271.771576,236.035751 265.906433,231.914398 
	C264.753510,231.104233 264.147186,229.516159 263.942444,228.105942 
	C266.537170,228.356735 268.848145,228.254990 270.361206,229.304047 
	C283.162384,238.179428 295.875793,247.185913 308.437012,256.396515 
	C309.856689,257.437531 310.171997,259.984680 310.999451,261.833405 
	C302.357849,261.888947 293.715332,261.882599 285.074829,262.012146 
	C263.241089,262.339447 241.714493,264.893097 220.361404,269.699646 
	C201.653030,273.910889 183.660507,279.906097 166.941986,289.164642 
	C157.158936,294.582397 148.137451,301.375305 138.780502,307.544922 
	C136.458954,305.447998 133.850845,303.092224 131.112518,300.031006 
	C130.987595,298.272583 130.992859,297.219604 130.998138,296.166626 
z"/>
<path fill="#277AFF" opacity="1.000000" stroke="none" 
	d="
M324.999847,137.097839 
	C324.333099,158.058823 323.752350,178.560349 322.839050,199.047058 
	C322.764313,200.723267 320.698578,203.333115 319.092041,203.761459 
	C301.866089,208.354309 284.546295,212.595078 267.180634,216.950287 
	C267.155365,216.642532 267.167572,215.485321 266.951569,214.372406 
	C265.581024,207.311172 265.541077,207.231064 272.313446,205.336075 
	C285.731873,201.581406 299.178833,197.928482 312.412598,194.288895 
	C313.225677,173.874481 314.044647,153.312714 314.863586,132.750961 
	C315.270264,132.561905 315.676910,132.372864 316.083557,132.183807 
	C318.394867,135.245331 324.543243,129.143341 324.999847,137.097839 
z"/>
<path fill="#277AFF" opacity="1.000000" stroke="none" 
	d="
M328.382721,98.901428 
	C331.636261,86.623291 335.183716,74.385429 338.968597,62.221455 
	C339.998352,58.912155 341.986359,55.903618 343.049011,52.600807 
	C343.517639,51.144272 342.773956,49.297684 342.580658,47.628174 
	C341.209839,47.852077 339.531860,47.642658 338.513794,48.364246 
	C320.518616,61.118885 302.331116,73.627090 284.759216,86.945930 
	C271.039825,97.344711 257.767273,108.400520 244.921814,119.865356 
	C232.641129,130.826111 220.945450,142.473633 209.419357,154.237381 
	C201.882446,161.929688 195.004608,170.281158 188.033371,178.508377 
	C184.769409,182.360413 181.479431,183.796875 176.322571,182.071411 
	C163.105225,177.648972 149.716766,173.736130 136.378799,169.678467 
	C134.975555,169.251587 133.452957,169.217056 131.576187,169.000549 
	C131.521301,167.447098 131.875961,165.893600 132.498383,163.167221 
	C149.576584,168.335632 166.444016,173.440262 183.702255,178.663147 
	C189.312668,172.454956 195.169586,165.771942 201.248428,159.297272 
	C209.304901,150.716232 217.158234,141.891617 225.777832,133.904419 
	C238.928070,121.718971 252.446259,109.905327 266.208344,98.412994 
	C278.381317,88.247704 290.910736,78.481491 303.634277,69.011337 
	C315.524109,60.161694 328.048279,52.163742 339.927673,43.300907 
	C343.886841,40.347095 345.314056,43.354828 346.921051,45.199272 
	C347.693604,46.085987 347.020325,48.683613 346.384247,50.256721 
	C344.846771,54.058983 342.673828,57.613945 341.257690,61.453255 
	C339.255280,66.882050 337.496979,72.422386 336.015839,78.016052 
	C334.430298,84.004074 333.411560,90.141808 331.841888,96.134697 
	C331.544464,97.270271 329.827789,98.034126 328.382721,98.901428 
z"/>
<path fill="#277AFF" opacity="1.000000" stroke="none" 
	d="
M123.663383,278.955750 
	C125.418221,284.603149 125.130074,284.974823 120.510742,284.647797 
	C116.629700,271.789551 113.473862,258.939911 108.851311,246.641556 
	C103.407524,232.158279 95.036156,219.253998 84.994514,207.326660 
	C72.073128,191.978851 56.182877,180.649902 38.903954,170.959015 
	C34.958408,168.746140 35.012871,167.991562 39.753395,165.061066 
	C49.579876,171.306778 59.219627,177.324249 68.464546,183.897049 
	C83.985626,194.931976 95.452286,209.660309 104.942238,225.947052 
	C114.482170,242.319550 119.746635,260.257660 123.663383,278.955750 
z"/>
<path fill="#277AFF" opacity="1.000000" stroke="none" 
	d="
M292.425842,251.974869 
	C293.540710,252.549515 294.194855,253.142303 294.849030,253.735092 
	C294.053162,254.464310 293.347778,255.645355 292.442230,255.826599 
	C290.675934,256.180145 288.797638,255.972076 286.965790,256.000336 
	C251.064041,256.554230 215.977341,261.717163 182.451080,275.102264 
	C174.919495,278.109192 167.838165,282.230713 160.474518,285.678894 
	C158.013321,286.831451 155.318420,287.484955 152.730347,288.366577 
	C152.343674,287.677063 151.957016,286.987579 151.570358,286.298065 
	C153.143082,284.890106 154.715820,283.482178 156.697845,282.376862 
	C160.458603,285.094940 161.844574,282.901581 162.999542,280.166595 
	C181.893433,269.931091 201.969254,262.837128 223.067017,259.130554 
	C238.495575,256.420013 254.128555,254.803192 269.712219,253.075943 
	C277.079346,252.259384 284.544434,252.326355 292.425842,251.974869 
z"/>
<path fill="#277AFF" opacity="1.000000" stroke="none" 
	d="
M231.414124,232.062561 
	C230.202820,230.503525 229.357346,228.899170 228.130676,226.571503 
	C222.240509,229.471817 216.211365,231.832703 210.821014,235.212433 
	C196.515778,244.181778 182.067322,253.022415 168.494446,263.025055 
	C159.425461,269.708527 151.794846,278.333923 143.436813,285.998993 
	C141.420410,287.848206 139.072296,289.335754 136.521667,290.995087 
	C136.598450,290.012604 136.821991,288.846069 137.493225,288.063477 
	C148.036880,275.770630 160.350815,265.411469 173.047562,255.446747 
	C188.798416,243.085068 206.135483,233.375839 223.996033,224.513916 
	C225.740662,223.648254 227.538910,222.657761 229.411057,222.371552 
	C230.490814,222.206497 231.983017,223.108994 232.890518,223.957672 
	C233.631851,224.650940 233.611221,226.097198 234.241257,226.988480 
	C234.880478,227.892715 235.903183,228.525864 237.371811,229.817719 
	C235.186188,230.677429 233.483078,231.347336 231.414124,232.062561 
z"/>
<path fill="#277AFF" opacity="1.000000" stroke="none" 
	d="
M124.045395,167.145126 
	C122.517303,172.607468 117.630508,176.696594 113.643433,175.858429 
	C106.058220,174.263840 103.290466,171.260208 103.054634,164.162262 
	C102.883644,159.016098 107.517403,154.538300 113.022186,154.006577 
	C118.538902,153.473694 122.785484,156.792999 123.998886,162.741058 
	C124.261879,164.030289 124.064247,165.413452 124.045395,167.145126 
z"/>
<path fill="#277AFF" opacity="1.000000" stroke="none" 
	d="
M258.366394,210.899429 
	C260.948761,216.570068 260.284149,222.463470 257.047485,225.412796 
	C253.473557,228.669449 247.731873,228.855927 242.869049,225.979187 
	C237.804245,222.982941 238.254517,217.815964 239.351273,213.659851 
	C240.050171,211.011429 243.634399,208.137421 246.496811,207.284958 
	C250.498489,206.093201 255.110443,206.442413 258.366394,210.899429 
z"/>
<path fill="#277AFF" opacity="1.000000" stroke="none" 
	d="
M318.239014,105.927849 
	C323.780365,104.329414 329.437714,105.880974 331.758789,109.425491 
	C333.844208,112.610100 333.402405,119.418564 331.053375,122.439735 
	C327.662048,126.801483 322.703888,127.072815 318.533173,125.476746 
	C315.778625,124.422607 313.017334,120.729958 312.262573,117.716789 
	C311.072357,112.965294 312.615112,108.313576 318.239014,105.927849 
z"/>
<path fill="#277AFF" opacity="1.000000" stroke="none" 
	d="
M92.418030,166.902222 
	C92.160835,165.059448 92.322304,163.285538 92.573776,160.522781 
	C76.063545,160.017319 59.767849,159.109421 43.476879,159.187546 
	C34.986572,159.228256 26.504599,161.006622 17.592754,162.000336 
	C17.464886,156.863281 22.086882,157.378128 24.852396,157.192169 
	C40.456177,156.142838 56.095348,155.294067 71.729439,155.153534 
	C80.013863,155.079056 88.312416,156.576523 97.069885,157.408554 
	C96.669632,160.377945 96.426125,163.262955 95.772179,166.051712 
	C95.653061,166.559677 93.858063,166.674667 92.418030,166.902222 
z"/>
<path fill="#277AFF" opacity="1.000000" stroke="none" 
	d="
M311.402069,261.901367 
	C310.171997,259.984680 309.856689,257.437531 308.437012,256.396515 
	C295.875793,247.185913 283.162384,238.179428 270.361206,229.304047 
	C268.848145,228.254990 266.537170,228.356735 264.240295,227.941772 
	C264.838684,225.742340 265.792816,223.526154 267.098541,220.493454 
	C275.323975,226.005676 283.148376,231.082916 290.792145,236.418869 
	C298.259186,241.631454 305.689606,246.923950 312.787048,252.616531 
	C314.295685,253.826538 314.656189,256.892365 314.809113,259.153015 
	C314.867767,260.020081 312.867065,261.026459 311.402069,261.901367 
z"/>
<path fill="#277AFF" opacity="1.000000" stroke="none" 
	d="
M130.664642,295.957428 
	C130.992859,297.219604 130.987595,298.272583 130.970276,299.720337 
	C129.229370,299.733826 127.500534,299.352539 125.386108,298.902313 
	C135.561569,263.679962 153.466537,232.384857 175.363617,203.209671 
	C177.790451,199.976196 180.711502,197.113617 183.759415,194.060272 
	C179.069275,201.203217 173.892120,208.276749 169.000992,215.542831 
	C153.141052,239.103851 139.456131,263.780334 130.977020,291.060455 
	C130.515152,292.546417 130.535355,294.182190 130.664642,295.957428 
z"/>
<path fill="#277AFF" opacity="1.000000" stroke="none" 
	d="
M229.608963,210.639557 
	C233.709061,208.038788 231.366318,206.225952 228.718521,204.932358 
	C220.367981,200.852692 211.939957,196.929840 203.507065,193.021469 
	C200.200714,191.489090 196.744492,190.276093 193.459137,188.703293 
	C188.823959,186.484314 188.850708,185.117386 193.736664,182.069794 
	C198.469269,184.358063 202.767776,186.810806 207.220840,188.940369 
	C217.173660,193.700058 227.203537,198.298645 237.523972,203.113052 
	C235.744751,206.186523 234.503860,208.652359 232.899506,210.853271 
	C232.541122,211.344910 230.906982,210.906586 229.608963,210.639557 
z"/>
<path fill="#277AFF" opacity="1.000000" stroke="none" 
	d="
M127.998993,325.833405 
	C120.733490,329.654633 112.145782,324.758240 112.428185,315.330750 
	C119.115654,308.572968 124.767014,308.281128 127.934364,314.908752 
	C129.355103,317.881592 128.061096,322.151886 127.998993,325.833405 
z"/>
<path fill="#277AFF" opacity="1.000000" stroke="none" 
	d="
M176.580719,188.094543 
	C176.420761,189.898911 176.456497,192.190491 175.400818,193.737076 
	C166.370377,206.966660 156.743912,219.806396 148.117065,233.288300 
	C142.622879,241.874496 138.547501,251.365860 133.775299,260.419373 
	C132.949844,261.985352 131.821381,263.391602 130.499756,264.934998 
	C134.660980,255.621384 138.367859,245.755737 143.819061,236.972672 
	C154.105972,220.398163 165.396851,204.446762 176.580719,188.094543 
z"/>
<path fill="#277AFF" opacity="1.000000" stroke="none" 
	d="
M128.344635,325.793274 
	C128.061096,322.151886 129.355103,317.881592 127.934364,314.908752 
	C124.767014,308.281128 119.115654,308.572968 112.496864,314.935364 
	C112.673187,310.518280 115.213409,307.163422 119.344055,306.197235 
	C123.712242,305.175568 128.175339,305.758057 131.461731,309.873322 
	C134.587860,313.787872 133.484070,321.049164 128.344635,325.793274 
z"/>
<path fill="#277AFF" opacity="1.000000" stroke="none" 
	d="
M162.657196,280.104126 
	C161.844574,282.901581 160.458603,285.094940 157.053558,282.339722 
	C157.520050,281.724213 158.040115,281.448456 158.833344,281.061584 
	C160.175964,280.647552 161.245392,280.344604 162.657196,280.104126 
z"/>
<path fill="#277AFF" opacity="1.000000" stroke="none" 
	d="
M194.364609,181.952728 
	C195.167084,180.420425 196.276154,178.751892 197.750336,177.062439 
	C196.967377,178.633179 195.819290,180.224854 194.364609,181.952728 
z"/>
<path fill="#277AFF" opacity="1.000000" stroke="none" 
	d="
M201.349014,173.973236 
	C202.156067,172.437485 203.269577,170.760696 204.749268,169.062714 
	C203.962128,170.638397 202.808807,172.235291 201.349014,173.973236 
z"/>
<path fill="#277AFF" opacity="1.000000" stroke="none" 
	d="
M214.349030,159.973221 
	C215.156036,158.437469 216.269547,156.760681 217.749268,155.062698 
	C216.962158,156.638412 215.808838,158.235306 214.349030,159.973221 
z"/>
</svg>
