<?xml version="1.0" encoding="utf-8"?>
<!-- Uploaded to: SVG Repo, www.svgrepo.com, Generator: SVG Repo Mixer Tools -->
<svg fill="#FFF" width="800px" height="800px" viewBox="0 0 32 32" version="1.1" xmlns="http://www.w3.org/2000/svg">
<title>microsoftazure</title>
<path d="M21.43 28.825c0.074-0.201 0.117-0.432 0.117-0.674 0-0.232-0.040-0.455-0.112-0.663l0.004 0.014-8.209-24.324h7.54c0 0 0.001 0 0.001 0 0.295 0 0.546 0.189 0.637 0.453l0.001 0.005 8.2 24.299c0.022 0.064 0.035 0.139 0.035 0.216 0 0.295-0.189 0.546-0.453 0.637l-0.005 0.001zM15.63 14.515l4.529 13.42c0.023 0.064 0.036 0.139 0.036 0.216 0 0.372-0.301 0.674-0.673 0.675l-0-0.001h-0.037c-0 0-0.001 0-0.001 0-0.151 0-0.291-0.050-0.403-0.134l0.002 0.001-11.605-8.623h6.065zM28.97 30.175c0.001 0 0.001 0 0.002 0 1.118 0 2.024-0.906 2.024-2.024 0-0.233-0.039-0.456-0.111-0.664l0.004 0.014v0.003l-8.204-24.299c-0.278-0.808-1.031-1.378-1.917-1.378h-9.537c-0.886 0.001-1.639 0.571-1.913 1.364l-0.004 0.014-8.203 24.298c-0.068 0.193-0.107 0.416-0.107 0.649 0 1.118 0.906 2.024 2.024 2.024 0.001 0 0.001 0 0.002 0h5.924c0.887-0 1.64-0.57 1.914-1.364l0.004-0.014 1.221-3.614 6.182 4.592c0.333 0.25 0.752 0.4 1.207 0.4v0z"></path>
</svg>
