<svg width="24" height="24" viewBox="0 0 24 24" fill="none" xmlns="http://www.w3.org/2000/svg">
    <path d="M23.1429 5.09817C22.3232 5.45174 21.4313 5.70621 20.5125 5.80531C21.4664 5.23862 22.1807 4.34335 22.5215 3.28746C21.6264 3.81993 20.6458 4.1933 19.6232 4.39103C19.1959 3.93413 18.679 3.57015 18.1048 3.32176C17.5306 3.07337 16.9114 2.94589 16.2857 2.94728C13.7545 2.94728 11.7188 4.99906 11.7188 7.51692C11.7188 7.87049 11.7616 8.22406 11.8313 8.56424C8.0411 8.36603 4.66074 6.55531 2.41342 3.78299C2.00393 4.48241 1.78935 5.27877 1.79199 6.08924C1.79199 7.67495 2.59824 9.07317 3.82771 9.89549C3.10316 9.86696 2.39559 9.66781 1.76253 9.31424V9.37049C1.76253 11.591 3.33217 13.4312 5.42414 13.8544C5.03135 13.9564 4.62728 14.0086 4.22146 14.0098C3.92414 14.0098 3.64288 13.9803 3.35896 13.9401C3.93753 15.7508 5.62235 17.066 7.6286 17.1089C6.05896 18.3383 4.09289 19.0616 1.95806 19.0616C1.57503 19.0616 1.22146 19.0482 0.854492 19.0053C2.87949 20.3044 5.28217 21.0544 7.86967 21.0544C16.2697 21.0544 20.8661 14.0955 20.8661 8.05531C20.8661 7.8571 20.8661 7.65888 20.8527 7.46067C21.742 6.80978 22.5215 6.00353 23.1429 5.09817Z" fill="#EAEAEA"/>
</svg>
